<?xml version="1.0" standalone="no"?>
<!DOCTYPE svg PUBLIC "-//W3C//DTD SVG 20010904//EN"
 "http://www.w3.org/TR/2001/REC-SVG-20010904/DTD/svg10.dtd">
<svg version="1.0" xmlns="http://www.w3.org/2000/svg"
 width="1254.000000pt" height="1254.000000pt" viewBox="0 0 1254.000000 1254.000000"
 preserveAspectRatio="xMidYMid meet">

<g transform="translate(0.000000,1254.000000) scale(0.100000,-0.100000)"
fill="#000000" stroke="none">
<path d="M5730 10095 c-77 -16 -159 -44 -226 -77 -56 -27 -914 -516 -1134
-646 -718 -423 -950 -563 -1019 -614 -167 -126 -287 -303 -343 -510 l-23 -83
0 -1470 0 -1470 28 -88 c51 -162 123 -282 238 -395 67 -66 216 -182 234 -182
4 0 6 584 4 1298 -4 1451 -9 1344 67 1510 83 183 180 277 512 496 1195 790
1535 1012 1582 1036 151 75 343 69 474 -17 34 -22 254 -202 851 -698 193 -160
1117 -930 1202 -1001 45 -38 81 -73 79 -79 -1 -5 -342 -245 -757 -533 -1100
-762 -1554 -1082 -1546 -1087 1 -1 52 -35 112 -77 61 -41 267 -181 459 -313
199 -136 365 -242 386 -247 23 -6 50 -6 72 0 19 5 241 158 494 339 656 470
667 479 719 534 52 55 99 147 115 224 12 60 29 2279 18 2369 -9 71 -46 153
-99 223 -46 59 -567 467 -1316 1030 -502 378 -594 440 -707 484 -149 58 -328
74 -476 44z"/>
<path d="M6756 10019 c5 -9 1080 -870 1486 -1191 182 -143 248 -231 299 -398
19 -63 23 -98 23 -225 2 -351 -17 -2004 -24 -2160 -9 -192 -24 -257 -87 -364
-64 -109 -148 -182 -503 -436 -879 -630 -825 -595 -943 -615 -121 -21 -192 4
-395 143 -75 52 -274 188 -442 302 -443 303 -650 444 -967 656 l-283 189 1
-327 c0 -181 4 -429 7 -554 l7 -225 37 -76 c29 -57 54 -90 105 -137 38 -34
329 -256 648 -494 319 -239 685 -513 813 -611 252 -192 305 -227 399 -262 139
-53 269 -51 388 5 70 33 92 49 372 272 278 221 896 685 1328 997 249 180 300
224 374 323 78 103 125 201 156 323 l25 99 0 1444 c0 1280 -2 1453 -16 1521
-46 222 -169 414 -350 543 -44 31 -268 167 -499 301 -231 134 -665 388 -964
563 -300 175 -569 328 -598 341 -95 42 -199 64 -305 64 -70 0 -97 -3 -92 -11z"/>
<path d="M5809 8716 c-20 -7 -59 -26 -85 -43 -47 -28 -739 -480 -1114 -727
-96 -63 -281 -184 -410 -268 -267 -174 -351 -248 -412 -364 -79 -151 -73 -17
-70 -1599 3 -1566 -2 -1459 71 -1610 72 -148 169 -246 348 -351 248 -145 809
-503 1348 -859 182 -120 355 -228 385 -241 202 -81 444 -66 615 38 71 43 385
262 385 268 -1 3 -51 42 -113 88 -62 45 -490 367 -952 715 -923 695 -922 695
-1004 862 -81 164 -76 103 -73 1070 2 493 7 884 13 915 21 120 102 247 218
340 112 90 1155 781 1608 1066 79 49 143 91 143 94 0 14 -736 595 -768 606
-47 17 -87 17 -133 0z"/>
</g>
</svg>
